<?xml version="1.0" encoding="UTF-8" standalone="no"?> <svg xmlns:inkscape="http://www.inkscape.org/namespaces/inkscape" xmlns:sodipodi="http://sodipodi.sourceforge.net/DTD/sodipodi-0.dtd" xmlns="http://www.w3.org/2000/svg" xmlns:svg="http://www.w3.org/2000/svg" version="1.1" id="Capa_1" x="0px" y="0px" viewBox="0 0 993.17841 343.1848" xml:space="preserve" sodipodi:docname="89890c58fba0aac0ec0bcfe15ae24fa8.svg" width="993.17841" height="343.18481"><defs id="defs129"></defs> <style type="text/css" id="style2"> .st0{fill:#2B93A6;} .st1{fill:#4D9237;} .st2{fill:#B0D366;} </style> <g id="g124" transform="translate(-21.421621,-18.779192)"> <path class="st0" d="M 180.5,19.2 C 135.6,22.4 93.5,43.4 63.6,77.6 26.5,120.1 12.8,178 26.8,233.3 c 14.2,56.1 56.8,101.7 112,120 20.1,6.6 40.4,9.4 61.5,8.5 12.5,-0.5 22.8,-2 34.6,-5 12.5,-3.1 22.2,-6.7 34.4,-12.8 48.9,-24.2 83.6,-70.7 92.7,-124.3 1.8,-10.9 2.3,-16.8 2.3,-28.9 0,-13.9 -0.8,-22.6 -3.3,-34.9 -10.4,-52 -45.5,-97 -93.6,-120.2 -26.7,-12.8 -57,-18.6 -86.9,-16.5 z m -42.6,54.7 c 14.3,2.6 34.3,14.3 52.9,31.1 l 3.3,3 3.9,-3.4 c 17.7,-15.1 34.9,-24.9 48.6,-27.9 4.5,-1 10.8,-1.1 14.5,-0.4 10.6,2.1 17.7,10.2 19.9,22.9 2,11.3 0.4,26.1 -4.6,43.3 -0.8,2.8 -1.4,5.1 -1.4,5.2 0,0.1 2.2,0.8 4.7,1.6 11.1,3.7 22,8.8 29.3,13.6 5.9,3.8 12.1,10 14.7,14.4 2.7,4.7 3.7,7.7 3.9,12.4 0.2,4.7 -0.3,7.3 -2.3,11.3 -5.7,11.5 -22.3,22.6 -45.5,30.3 l -4.6,1.6 0.5,1.6 c 3.5,11.4 5.6,23.4 5.6,33.1 0,5.2 -0.2,5.8 -1.9,5.6 -0.8,-0.1 -0.8,-0.2 -1.1,-6.7 -0.3,-9.6 -1.6,-17.2 -4.6,-28.1 -1.2,-4.4 -1.4,-4.7 -2.1,-4.5 -8.1,2.3 -20.9,5 -29.8,6.4 -6.2,0.9 -17.6,2.2 -19.6,2.2 -1.5,0 -1.5,0 -7.2,6.5 -3.1,3.6 -8.6,9.4 -12,13 l -6.4,6.5 1.3,1.2 c 4.9,4.6 14.8,12.3 21.4,16.5 5.7,3.7 15.7,8.5 21.2,10.3 l 4.4,1.4 v 1.2 c 0,1.7 -0.8,1.7 -5.6,0.1 C 226.9,295 210.7,285 197.4,273.3 l -3.3,-2.9 -1,0.9 c -12.1,11.2 -27.8,22.2 -38.8,27.2 -19.6,9 -34.5,8.2 -43.3,-2.4 -2,-2.4 -4.5,-7.8 -5.6,-11.8 -5.1,-20.2 3.1,-53.6 21.8,-89.2 1.6,-3 2.9,-5.6 2.9,-5.7 0,-0.1 -1,-2 -2.1,-4.1 -4.8,-8.8 -11.2,-22.6 -14.2,-30.9 -0.8,-2 -1.5,-3.8 -1.6,-3.9 -0.4,-0.4 -10.2,3 -16.6,5.8 -11.3,4.8 -19.6,10 -25.5,15.9 -5.6,5.6 -8.3,10.6 -8.9,16.8 -0.5,4.6 1.5,10.5 5.1,15.2 4.2,5.5 12.8,11.9 22.5,16.6 5.4,2.6 5.5,2.7 5.4,3.8 -0.2,1.9 -1.4,1.6 -7.5,-1.4 C 75.6,217.6 68.5,211.9 63.5,204.9 57.9,197.1 56.9,188 60.6,180 c 5.6,-12 20.9,-22.5 44.6,-30.5 3.1,-1.1 5.7,-2 5.8,-2 0.1,-0.1 -0.6,-2.5 -1.5,-5.5 -4.7,-14.9 -6.3,-24.4 -6,-36.3 0.3,-9.8 1.4,-14.8 4.4,-20.3 6,-10.1 15.9,-14 30,-11.5 z M 273,279 c 2.9,1.4 5.4,4 6.9,7.1 1.1,2.2 1.2,2.8 1.2,5.9 0,3.3 -0.1,3.7 -1.4,6.3 -1.6,3.2 -3.7,5.3 -6.8,6.8 -1.8,0.8 -2.4,1 -6,1 -3.7,0 -4.2,-0.1 -6.1,-1 -8.9,-4.4 -11,-16.2 -4,-23.1 3.1,-3.1 6.1,-4.2 10.7,-4.1 2.8,0 3.7,0.2 5.5,1.1 z" id="path4"></path> <path class="st0" d="m 126.9,76.2 c -7.3,0.9 -13.2,4.9 -16.5,11.3 -6,11.5 -5.1,31.7 2.6,55.4 1.1,3.2 1.4,3.9 1.9,3.8 0.3,-0.1 3.3,-0.9 6.7,-1.7 11.3,-2.8 24.7,-5 38.2,-6.4 5.5,-0.5 5.9,-0.7 6.7,-1.6 0.5,-0.5 2.9,-3.4 5.5,-6.3 2.5,-2.9 8,-8.7 12.2,-12.9 7.3,-7.4 7.6,-7.7 6.9,-8.4 -1.2,-1.4 -11.2,-9.8 -15.4,-13 C 157.4,82.5 138.9,74.8 126.9,76.2 Z" id="path6"></path> <path class="st0" d="m 248.9,79.3 c -13.3,2.4 -30.8,12.3 -48.4,27.2 l -4.1,3.5 5.7,5.9 c 6.8,7 17.6,19.1 19.7,22.1 0,0.1 2.3,0.4 4.9,0.6 14.7,1.5 28.8,4 40,6.9 2.7,0.7 4.9,1.3 5,1.3 0.6,0 4.2,-13.8 5.5,-20.8 2.2,-11.9 2.2,-20.9 0.2,-29.1 -2.3,-9.4 -8.5,-15.8 -16.7,-17.6 -2.8,-0.6 -8.3,-0.6 -11.8,0 z" id="path8"></path> <path class="st0" d="m 186,120.2 c -7.1,7.2 -16.1,17 -15.8,17.3 0.1,0.1 3.4,0 7.4,-0.3 7.2,-0.4 30.1,-0.2 36.9,0.3 l 3.3,0.3 -1.1,-1.4 c -4.7,-6 -21.6,-23.9 -22.6,-23.9 -0.2,-0.1 -3.9,3.4 -8.1,7.7 z" id="path10"></path> <path class="st0" d="m 176.5,140.2 c -2.4,0.1 -5.4,0.3 -6.7,0.3 h -2.3 l -2,2.4 c -7.7,9.3 -19.8,26.6 -27.4,39.3 l -4.3,7.2 4.1,6.8 c 8.7,14.5 18.9,29 29.1,41.3 1.3,1.6 2.2,2.3 2.9,2.4 0.6,0.1 6.1,0.4 12.1,0.6 10.5,0.4 26.6,0.1 34.3,-0.7 l 2.5,-0.2 3.9,-4.9 c 5.6,-7.1 10.8,-14.3 16.3,-22.6 5.3,-8 13.3,-21.1 13.6,-22.4 0.5,-2.2 -15.8,-27.8 -27.6,-43.2 l -4.4,-5.8 -2.5,-0.2 c -9.2,-0.6 -31.1,-0.9 -41.6,-0.3 z" id="path12"></path> <path class="st0" d="m 157.1,141.7 c -8.3,1 -17.1,2.4 -24.3,3.8 -8.1,1.6 -16.8,3.7 -17.3,4.1 -0.3,0.2 3.4,9.7 6.3,16.1 2,4.6 9.1,18.6 9.8,19.7 0.6,0.8 0.7,0.7 3.9,-4.8 6.6,-11.1 16.1,-24.8 26.6,-38.5 l 0.7,-0.9 h -1.6 c -0.8,0.2 -2.7,0.3 -4.1,0.5 z" id="path14"></path> <path class="st0" d="m 227.1,144.5 c 8.3,10.6 16.7,23.2 27.4,41.4 0.4,0.6 7.3,-13.1 10.9,-21.6 2.4,-5.6 5.7,-14.3 5.5,-14.5 -0.7,-0.7 -17.5,-4.5 -26.5,-6 -5.4,-0.9 -18.1,-2.6 -19.5,-2.6 -0.2,0.1 0.8,1.5 2.2,3.3 z" id="path16"></path> <path class="st0" d="m 273.8,151.1 c -0.1,0.1 -0.9,2.2 -1.7,4.5 -3.2,8.7 -8.6,20.6 -13.3,29.5 l -2.3,4.4 4.1,8.2 c 5.1,10.2 9.7,21.2 13.5,32 0.2,0.5 6.7,-1.6 14.4,-4.7 23,-9.1 35.8,-21.5 35.8,-34.4 0,-12.6 -11.8,-24.7 -33,-33.7 -3.5,-1.5 -16.4,-6.1 -17.1,-6.1 -0.1,0 -0.3,0.1 -0.4,0.3 z" id="path18"></path> <path class="st0" d="m 130.5,195.8 c -15.8,29.1 -25.2,61.4 -23.4,80.4 1,10.1 4.2,17.3 9.7,21.4 6.1,4.6 14.2,5.6 24.2,2.9 13.7,-3.7 32.4,-15.2 48.9,-30.2 l 1.8,-1.6 -7.3,-7.3 c -4,-4 -9.3,-9.6 -11.8,-12.4 -2.5,-2.8 -4.7,-5.3 -4.9,-5.6 -0.2,-0.3 -2.9,-0.7 -6.3,-1 -11.9,-1.1 -27.3,-3.5 -28.2,-4.3 -0.6,-0.5 -0.6,-1.6 0,-2.1 0.4,-0.3 2,-0.2 7.2,0.7 6.6,1.1 21.1,3 23.1,3 1,0 1,-0.1 -1.9,-3.6 -9.4,-11.6 -20.4,-27.6 -28.4,-41.4 l -1.1,-1.9 z" id="path20"></path> <path class="st0" d="m 252.7,196.2 c -6.9,12.1 -17.3,27.5 -26,38.6 -2,2.5 -3.5,4.6 -3.5,4.7 0.2,0.1 11.6,-1.2 17.8,-2.1 9.5,-1.4 29.1,-5.7 30.1,-6.5 0.3,-0.3 -3.1,-9.7 -6.5,-17.5 -2.2,-5.1 -9.4,-20 -9.8,-20.5 -0.1,0 -1,1.5 -2.1,3.3 z" id="path22"></path> <path class="st0" d="m 215.4,243.1 c -0.5,0.5 -24.1,0.9 -33.2,0.6 -5.5,-0.2 -10.1,-0.3 -10.2,-0.2 -0.4,0.4 15.1,16.6 19.8,20.8 l 2.5,2.2 5.9,-6 c 4.9,-5 8.1,-8.5 15.4,-16.7 0.4,-0.4 0.5,-0.8 0.3,-0.8 -0.2,0 -0.4,0 -0.5,0.1 z" id="path24"></path> <path class="st1" d="m 565.9,77 c -3.7,0.5 -8.6,2.1 -12.1,3.8 -11.3,5.6 -18.6,16.9 -21.4,33.3 -3,17.3 -1.4,38.8 3.7,51.3 3,7.2 8.2,13.6 13.9,16.8 6.5,3.7 13.1,5 23.3,4.7 8.4,-0.2 12.1,-1 18.2,-4.1 7.5,-3.8 12.8,-9.2 16.8,-17.6 5.2,-10.5 7,-21.4 6.7,-38.9 -0.4,-17.9 -3.2,-28.8 -9.7,-37.3 -5,-6.6 -12.8,-10.7 -22.9,-12.1 -3.3,-0.4 -13.3,-0.4 -16.5,0.1 z m 11.3,18.1 c 5.3,1.4 8.7,4.3 11.4,9.8 3.4,7 4.8,15.5 4.5,29.5 -0.2,9.5 -0.8,14.6 -2.5,19.9 -3.1,10.1 -9.7,15.3 -18.6,14.7 -8.5,-0.6 -14.2,-6.8 -17,-18.6 -1.2,-5.2 -1.6,-8.9 -1.9,-16.6 -0.4,-13.3 1.4,-24.9 4.9,-30.9 1.4,-2.4 4.4,-5.5 6.4,-6.5 3.8,-1.9 8.7,-2.4 12.8,-1.3 z" id="path26"></path> <path class="st1" d="m 407.3,78.9 c -0.6,3.4 -1.3,11.7 -1.1,12.4 0.3,0.9 3,2.9 5.8,4.2 l 2.1,1 v 35.4 35.4 l -2.9,1.5 c -1.6,0.8 -3.4,2 -4.1,2.7 l -1.2,1.2 0.6,5.6 c 0.4,3.1 0.7,6 0.8,6.6 l 0.2,1 h 17 c 13.3,0 17,-0.1 17,-0.5 0,-0.2 0.3,-3.3 0.7,-6.7 l 0.7,-6.2 -1.5,-1.4 c -0.8,-0.7 -2.6,-1.9 -4,-2.6 l -2.5,-1.2 V 132 96.5 l 2.9,-1.6 c 1.6,-0.9 3.4,-2.1 4,-2.7 l 1.1,-1.2 -0.7,-6.2 c -0.4,-3.4 -0.7,-6.4 -0.7,-6.7 0,-0.3 -3.7,-0.4 -17,-0.4 h -17 z" id="path28"></path> <path class="st1" d="m 449.4,78.3 c -0.1,0.4 -0.5,3.4 -0.8,6.8 l -0.7,6.2 1.4,1.2 c 0.7,0.7 2.5,1.8 3.9,2.5 l 2.5,1.3 v 35.5 35.6 l -2.4,1.2 c -3,1.5 -4.8,2.8 -5,3.8 -0.2,0.6 0.7,10.5 1.1,12.6 l 0.1,0.8 H 469 c 15.4,0 19.6,-0.1 19.6,-0.5 0,-0.2 0.3,-3.2 0.7,-6.7 l 0.7,-6.2 -0.8,-0.9 c -1.1,-1.2 -5.1,-3.1 -9,-4.3 l -3.4,-1 v -9.1 -9.1 h 6.9 c 24.6,0 38,-7.7 42.5,-24.5 1,-3.5 1.4,-14.5 0.7,-19.1 -1.9,-13.5 -8.3,-21.1 -20.6,-24.6 -7.1,-2 -8.8,-2.2 -33.8,-2.3 -22,0.1 -23,0.1 -23.1,0.8 z m 43.7,17.4 c 3.7,0.7 5.8,1.7 8,3.7 3.4,3.2 4.6,7.2 4.3,14.5 -0.2,5.4 -1.1,8.4 -3.1,11 -3.5,4.6 -8.1,6 -19.4,6.1 h -6 V 113.1 95.2 h 6.7 c 4.3,0 7.7,0.2 9.5,0.5 z" id="path30"></path> <path class="st1" d="m 620.7,84.3 -0.8,6.7 1.5,1.5 c 0.9,0.8 2.7,2 4,2.7 l 2.4,1.2 v 35.5 35.5 l -2.5,1.2 c -1.4,0.6 -3.1,1.8 -4,2.6 l -1.5,1.4 0.8,6.7 0.7,6.7 h 19.6 19.6 l 0.7,-6.7 0.7,-6.7 -1,-1 c -1.4,-1.3 -5,-3 -8.8,-4.2 l -3.2,-1 V 154 141.6 h 4.4 c 5,0 6.4,0.4 7.8,2.3 0.5,0.7 4.9,10.3 9.7,21.5 l 8.7,20.3 12.4,0.1 12.4,0.1 0.6,-5.6 c 0.4,-3.1 0.6,-6 0.6,-6.4 0,-1.1 -2.7,-3.3 -6.3,-5 l -3,-1.5 -5.5,-11.4 c -6.1,-12.7 -6.8,-13.7 -11.5,-16.5 l -2.3,-1.4 2.1,-1 c 6,-2.7 11.9,-7.9 14.8,-12.9 3.1,-5.4 4.1,-9.6 3.8,-17.3 -0.4,-9 -2.3,-14.8 -6.7,-19.4 -4,-4.3 -8.8,-6.7 -16.6,-8.3 -6.5,-1.3 -12.3,-1.6 -33.5,-1.6 H 621 Z m 46,12 c 3.2,1.1 5.7,2.8 7.1,4.9 1.6,2.4 2,3.8 2.2,8 0.4,8 -2.7,12.3 -10.3,14.4 -1.5,0.4 -4.5,0.7 -9.4,0.8 l -7.2,0.2 V 109.9 95.2 l 7.6,0.1 c 6.5,0.2 7.9,0.3 10,1 z" id="path32"></path> <path class="st1" d="m 836.3,212 v 8.2 l -1.6,-0.8 c -3.3,-1.6 -8.5,-1.5 -12.3,0.4 -2.3,1.1 -5.2,4.4 -6.2,7 -1.2,3.1 -1.4,8.7 -0.4,12 1.9,6.2 6.1,9.6 12.4,9.9 3.3,0.2 5.9,-0.4 7.6,-1.8 l 0.9,-0.7 0.1,1 0.1,1 3.4,0.1 3.4,0.1 v -22.3 -22.3 h -3.7 -3.7 z m -2.7,13.6 c 2.1,1.6 3.2,4.4 3.2,8.1 0,2.6 -0.1,3.3 -1,5.1 -2.3,4.8 -7.8,5.6 -11.3,1.6 -1.6,-1.8 -2.2,-3.8 -2.2,-7.1 0,-5.7 3,-9.1 7.7,-8.8 1.8,0 2.5,0.2 3.6,1.1 z" id="path34"></path> <path class="st1" d="m 405.6,227.6 v 20.8 h 3.7 3.7 v -20.8 -20.8 h -3.7 -3.7 z" id="path36"></path> <path class="st1" d="m 491.2,207.3 c -3.2,1.4 -2.6,6.3 0.9,7 3.6,0.7 5.9,-3.4 3.5,-6.1 -1.2,-1.3 -2.7,-1.6 -4.4,-0.9 z" id="path38"></path> <path class="st1" d="m 610.4,227.6 v 20.9 h 3.7 3.7 v -6.9 -6.9 l 5.8,-0.1 c 7.2,-0.2 9.1,-0.8 12.2,-3.9 2.7,-2.7 3.7,-5.6 3.7,-10.6 0,-4.8 -0.7,-7.2 -3,-9.5 -1.4,-1.4 -2.2,-2 -4.3,-2.6 -2.3,-0.7 -3.5,-0.8 -12.1,-1 l -9.6,-0.1 v 20.7 z m 18.4,-13.7 c 2.4,1.2 3,2.3 3,6.1 0,4.1 -0.7,5.5 -3.1,6.7 -1.4,0.7 -2.2,0.8 -6.3,0.8 h -4.7 v -7.3 -7.3 l 4.9,0.1 c 3.8,0.2 5.1,0.3 6.2,0.9 z" id="path40"></path> <path class="st1" d="m 475.2,211.8 -1.9,0.1 v 3.5 3.4 h -2 -1.9 l -0.3,1.9 c -0.4,3.7 -0.5,3.6 2,3.6 h 2.2 l 0.1,10 0.1,10 1,1.5 c 1.5,2.2 3,2.8 7.8,3 l 4.1,0.1 0.2,-2 c 0.5,-4.1 0.6,-3.9 -2.2,-3.9 -4.1,0 -3.9,0.4 -4,-9.8 l -0.1,-8.8 h 3.5 3.5 v -2.7 -2.7 h -3.5 -3.5 v -3.7 -3.7 l -1.5,0.1 c -1,-0.1 -2.6,0 -3.6,0.1 z" id="path42"></path> <path class="st1" d="m 504.9,211.8 -1.8,0.2 -0.1,3.4 -0.1,3.4 H 501 c -2,0 -1.9,-0.2 -2.3,3.9 l -0.1,1.6 h 2.2 2.2 v 8.8 c 0,9.5 0.2,11 1.7,13.1 1.5,1.9 3.4,2.6 7.7,2.6 2,0 3.8,-0.1 3.9,-0.3 0.1,-0.1 0.3,-1.5 0.4,-2.9 L 517,243 h -2.5 c -1.9,0 -2.7,-0.1 -3.4,-0.7 -0.8,-0.7 -0.8,-0.8 -1,-9.3 l -0.2,-8.6 h 3.5 3.5 v -2.7 -2.7 h -3.5 -3.5 v -3.7 -3.7 l -1.5,0.1 c -1,-0.1 -2.5,0 -3.5,0.1 z" id="path44"></path> <path class="st1" d="m 553.1,211.8 -1.9,0.1 v 3.5 3.4 h -2 -1.9 l -0.3,1.9 c -0.4,3.7 -0.5,3.6 2,3.6 h 2.2 l 0.1,10 0.1,10 1,1.5 c 1.5,2.2 3,2.8 7.8,3 l 4.1,0.1 0.2,-2 c 0.5,-4.1 0.6,-3.9 -2.2,-3.9 -4.1,0 -3.9,0.4 -4,-9.8 l -0.1,-8.8 h 3.5 3.5 v -2.7 -2.7 h -3.5 -3.5 v -3.7 -3.7 l -1.5,0.1 c -1,-0.1 -2.6,0 -3.6,0.1 z" id="path46"></path> <path class="st1" d="m 429.2,218.5 c -0.7,0.2 -2,0.7 -2.9,1.1 -1.2,0.6 -1.5,0.7 -1.8,0.3 -0.2,-0.3 -0.3,-0.6 -0.3,-0.8 0,-0.1 -1.4,-0.3 -3.1,-0.3 H 418 v 14.8 14.8 h 3.5 3.5 v -10.7 c 0,-10.7 0,-10.8 0.8,-11.5 1.2,-1.2 3.3,-1.9 5.4,-1.9 2.6,0 4.1,1 5.2,3.2 0.7,1.6 0.8,2.4 0.9,11.3 l 0.1,9.6 h 3.4 3.4 v -8.9 c 0,-4.9 -0.2,-9.9 -0.4,-11.2 -0.8,-4.8 -3.2,-8.1 -6.8,-9.4 -2.1,-0.6 -6,-0.9 -7.8,-0.4 z" id="path48"></path> <path class="st1" d="m 455.1,218.5 c -5.7,1.2 -8.8,6.1 -7.4,11.4 0.8,2.8 3.2,4.6 7.9,6 4.4,1.2 6.4,2.9 5.9,4.8 -0.8,3.1 -6.1,3.5 -11.4,1 -1.2,-0.6 -2.2,-1 -2.3,-1 -0.1,0.1 -0.3,1.4 -0.5,3 -0.3,2.6 -0.3,2.9 0.3,3.4 2.3,1.6 10.5,2.4 14.5,1.4 4.3,-1.2 6.4,-3.9 6.4,-8.2 0,-5 -2.3,-7.5 -8.7,-9.3 -4.3,-1.2 -6,-2.3 -6,-3.9 0,-3.6 5.4,-4.6 10.3,-1.8 l 2.4,1.3 0.2,-2.1 c 0.5,-4.5 0.7,-4.2 -2.2,-5.1 -2.6,-1 -7.1,-1.5 -9.4,-0.9 z" id="path50"></path> <path class="st1" d="m 576.7,218.6 c -2.9,0.6 -5.3,1.9 -7.2,3.9 -4.4,4.6 -5.3,12.1 -2.4,18.4 1.4,3 3.5,5.1 6.6,6.5 2.3,1.1 2.7,1.2 6.7,1.2 3.8,0 4.4,-0.1 6.5,-1.1 6.8,-3.1 10,-11.4 7.5,-19.4 -2.3,-7.3 -9.6,-11.2 -17.7,-9.5 z m 6.9,6.4 c 3,1.5 4.2,4.1 4.2,8.8 0,4.9 -1.8,7.7 -5.5,8.8 -3.3,1 -6.9,-0.6 -8.6,-3.9 -1.2,-2.4 -1.2,-7.9 -0.1,-10.2 0.9,-1.7 2.4,-3.3 3.8,-3.8 1.6,-0.6 4.7,-0.5 6.2,0.3 z" id="path52"></path> <path class="st1" d="m 650,218.6 c -5.9,1.5 -9.5,5.8 -10.5,12.4 -1.2,8.4 3.1,15.2 10.8,17.3 4,1 10.6,0.5 13.8,-1.1 l 1.1,-0.6 -0.3,-2.8 c -0.1,-1.5 -0.3,-2.9 -0.4,-2.9 0,0 -1.3,0.3 -2.8,0.9 -3.8,1.4 -7.8,1.4 -10.3,0.1 -2.2,-1.1 -3.7,-2.9 -4.4,-5.2 l -0.5,-1.7 h 9.8 9.8 l 0.3,-2.3 c 0.7,-6.1 -2.3,-11.4 -7.5,-13.4 -2.3,-1.1 -6.5,-1.3 -8.9,-0.7 z m 6.7,6.4 c 1.4,0.8 2.2,2 2.5,3.6 l 0.3,1.2 h -6.3 -6.3 l 0.5,-1.4 c 1.1,-2.7 3.3,-4.1 6.2,-4.1 1.3,0 2.3,0.3 3.1,0.7 z" id="path54"></path> <path class="st1" d="m 681.7,218.4 c -1.4,0.4 -3.1,1.4 -4.4,2.4 l -1.1,1 -0.2,-1.5 -0.3,-1.5 h -3.2 -3.3 v 14.8 14.8 h 3.7 3.7 v -10.1 c 0,-5.9 0.1,-10.3 0.4,-10.8 0.7,-1.3 2.9,-2.3 5.4,-2.5 l 2.4,-0.2 0.7,-3.1 c 0.3,-1.7 0.6,-3.2 0.7,-3.4 -0.2,-0.3 -3.3,-0.2 -4.5,0.1 z" id="path56"></path> <path class="st1" d="m 723.9,218.6 c -2.4,0.5 -5.2,1.6 -6,2.2 -0.5,0.4 -0.4,1.3 0.1,4.9 l 0.2,1.1 2,-0.9 c 5.7,-2.6 10.5,-1.7 11.3,2.3 l 0.2,1.1 -3.5,0.4 c -4.9,0.6 -8.3,2 -10.7,4.3 -2.7,2.6 -3.3,5.3 -2.2,9.2 0.7,2.2 3,4.6 5.2,5.2 3.4,1 7.9,0.2 10.6,-1.7 l 1.5,-1.1 0.7,0.9 c 1,1.4 3.4,2.3 6,2.3 2.6,0 2.4,0.2 2.9,-3.8 l 0.2,-2.1 h -1.2 c -2.2,0 -2.2,-0.3 -2.4,-9.3 -0.2,-7.3 -0.3,-8.3 -1.1,-9.9 -1,-2.2 -2.6,-3.9 -4.5,-4.7 -2,-0.8 -6.6,-1 -9.3,-0.4 z m 7.8,18.9 -0.1,3.4 -1.6,1.1 c -1.3,0.9 -1.9,1.1 -3.7,1.1 -2.5,0 -3.5,-0.7 -3.9,-2.7 -0.6,-3.3 2.2,-5.2 9.1,-6.3 0.1,0.1 0.2,1.6 0.2,3.4 z" id="path58"></path> <path class="st1" d="m 755.1,218.6 c -0.9,0.3 -2.3,0.8 -3,1.2 l -1.3,0.8 -0.1,-0.8 c -0.1,-0.7 -0.3,-0.8 -3.3,-0.9 l -3.2,-0.1 v 14.8 14.8 h 3.5 3.5 v -10.7 c 0,-10.7 0,-10.8 0.8,-11.5 1.2,-1.2 3.3,-1.9 5.4,-1.9 2.6,0 4.1,1 5.2,3.2 0.7,1.6 0.8,2.4 0.9,11.3 l 0.1,9.6 h 3.4 3.4 v -8.9 c 0,-4.9 -0.2,-9.9 -0.4,-11.2 -0.8,-4.7 -3.3,-8.1 -6.9,-9.3 -2.2,-0.8 -6,-1 -8,-0.4 z" id="path60"></path> <path class="st1" d="m 784.5,218.5 c -4.4,0.8 -8.1,3.8 -10.1,7.9 -1.1,2.3 -1.2,2.6 -1.2,7 0,5.6 0.7,7.7 3.5,10.8 2.7,3 5.6,4.2 9.9,4.5 4,0.2 6.7,-0.4 9.5,-2.2 7.7,-4.9 8.7,-18 1.8,-24.5 -2.2,-2 -3.4,-2.7 -6.4,-3.4 -2.4,-0.5 -4.6,-0.6 -7,-0.1 z m 6.2,6.3 c 1.8,0.7 3.4,2.7 4.1,4.7 0.8,2.5 0.6,7.2 -0.5,9.3 -1.9,3.6 -5.9,5.1 -9.4,3.5 -3.2,-1.5 -4.6,-4.2 -4.7,-8.6 0,-3 0.8,-5.6 2.3,-7.3 1.6,-1.8 5.8,-2.6 8.2,-1.6 z" id="path62"></path> <path class="st1" d="m 857,218.6 c -5.8,1.5 -9.5,5.9 -10.4,12.2 -1,7 1.9,13.5 7.3,16.2 4.6,2.4 12.9,2.4 17.3,0.2 l 1.1,-0.6 -0.2,-2.7 c -0.1,-1.5 -0.3,-2.8 -0.3,-2.9 -0.1,-0.1 -1,0.2 -2,0.6 -6.8,2.6 -12.5,1.4 -14.9,-3.3 -1.8,-3.5 -2.3,-3.3 8.7,-3.3 h 9.7 l 0.2,-2 c 0.6,-4.5 -1,-9.2 -3.9,-11.7 -3,-2.6 -8.6,-3.8 -12.6,-2.7 z m 6.7,6.4 c 1.4,0.8 2.2,2 2.5,3.6 l 0.3,1.2 h -6.3 -6.3 l 0.4,-1 c 0.6,-1.6 2,-3.2 3.3,-3.9 1.7,-0.8 4.6,-0.8 6.1,0.1 z" id="path64"></path> <path class="st1" d="m 489.3,233.6 v 14.8 h 3.7 3.7 v -14.8 -14.8 h -3.7 -3.7 z" id="path66"></path> <path class="st1" d="m 519,229.3 c 0.2,12.5 0.4,13.3 3.4,16.5 2.2,2.2 4.4,3 8,3 2.7,0 4.5,-0.5 6.2,-1.6 l 1.3,-0.9 v 1.1 1.1 h 3.3 3.3 v -14.8 -14.8 h -3.5 -3.5 v 10.7 c 0,11.9 0.1,11.2 -2.6,12.5 -1.6,0.8 -4.6,0.8 -6.1,0 -0.7,-0.3 -1.5,-1.3 -2,-2.2 -0.8,-1.5 -0.8,-2 -1,-11.3 l -0.1,-9.8 h -3.5 -3.5 z" id="path68"></path> <path class="st1" d="m 686.9,229.1 c 0.1,9.5 0.2,10.5 1,12.5 1.1,2.9 2.4,4.5 5,5.9 1.9,1 2.4,1.1 5.7,1.1 3.1,0 3.7,-0.1 5.4,-1 l 1.9,-1 0.2,0.9 c 0.2,0.8 0.4,0.9 3.3,0.9 h 3.1 v -14.8 -14.8 h -3.5 -3.5 v 10.8 10.8 l -1.1,0.9 c -2.1,1.8 -6.3,2 -8.1,0.4 -0.4,-0.4 -1.1,-1.4 -1.5,-2.3 -0.7,-1.5 -0.8,-2.5 -0.9,-11.1 l -0.1,-9.4 h -3.5 -3.5 z" id="path70"></path> <path class="st1" d="m 535.8,286.9 c 0,12.1 0.1,20.1 0.4,21.1 0.8,3.7 3.5,5.4 7.9,5.5 h 2.6 l 0.2,-2.1 c 0.1,-1.1 0.3,-2.6 0.4,-3.3 0.2,-1.1 0.1,-1.2 -1,-1.2 -2.4,0 -2.3,1.2 -2.4,-20.1 l -0.1,-19.4 h -4 -4 z" id="path72"></path> <path class="st1" d="m 613.2,270.1 -5.4,2.6 v 2.5 c 0,2.1 0.1,2.5 0.5,2.3 0.3,-0.1 2.9,-1 5.9,-1.9 l 5.3,-1.7 v -3.3 c 0,-2.4 -0.1,-3.3 -0.4,-3.2 -0.3,0.1 -2.9,1.3 -5.9,2.7 z" id="path74"></path> <path class="st1" d="m 792.5,275.5 v 8 l -1.9,-0.7 c -2.9,-1.1 -8.4,-0.8 -11.4,0.5 -5.5,2.6 -8.2,7.4 -8.2,14.6 0,7 2.8,11.9 8.2,14.4 2,1 2.6,1 6.4,1 3.7,0 4.4,-0.1 5.7,-0.8 1.5,-0.8 1.5,-0.8 1.7,-0.1 0.2,0.7 0.5,0.7 3.9,0.7 h 3.7 v -22.9 -22.9 h -4 -4 v 8.2 z m -2.9,14 c 0.7,0.4 1.6,1.6 2.2,2.4 0.8,1.5 0.9,2 0.9,5.9 0,3.8 -0.1,4.4 -0.9,5.9 -0.5,0.9 -1.5,2 -2.2,2.5 -1.1,0.7 -1.6,0.8 -3.7,0.7 -4.5,-0.3 -6.6,-2.9 -6.8,-8.6 -0.1,-2.8 0,-3.6 0.7,-5.2 1.3,-3.1 3.4,-4.5 6.6,-4.5 1.4,0.1 2.3,0.3 3.2,0.9 z" id="path76"></path> <path class="st1" d="m 418.1,270.2 c -9.1,2.4 -15,10.8 -15,21.3 0,13.3 8.5,22.4 21,22.4 12,0 20.3,-8.2 20.9,-20.7 0.6,-11.4 -5.3,-20.5 -15.1,-23 -2.8,-0.7 -9.1,-0.7 -11.8,0 z m 11.4,8.4 c 1.1,0.5 2.6,1.6 3.2,2.3 4.7,5.4 4.7,16.1 0.1,21.3 -2,2.2 -3.6,3.1 -6.5,3.6 -6.8,1.2 -12.4,-2.7 -13.9,-9.7 -1.4,-6.5 0.4,-13.2 4.3,-16.3 3.3,-2.7 8.8,-3.2 12.8,-1.2 z" id="path78"></path> <path class="st1" d="m 806.1,270.6 c -1.4,1.1 -1.8,2.7 -1.2,4.4 1,2.9 4.4,3.7 6.7,1.7 1.1,-1 1.2,-1.3 1.2,-3 0,-1.7 -0.1,-2 -1.2,-3 -1.6,-1.4 -4,-1.5 -5.5,-0.1 z" id="path80"></path> <path class="st1" d="m 672.7,270.4 c -4.2,0.8 -7.6,3 -9,6 -1.5,3.3 -0.6,8.3 2.2,12.4 l 1.2,1.7 -2.3,2.3 c -3.1,3.1 -4.4,5.5 -4.6,9.1 -0.2,4 0.5,6.1 3.2,8.8 2.7,2.7 5.4,3.7 10.8,3.7 4.1,0 6.9,-0.6 9.6,-2.2 l 1.6,-0.9 1,1 c 1,0.9 1.1,1 5.4,1 2.4,0 4.5,-0.1 4.5,-0.2 0,-0.1 -1.2,-1.6 -2.6,-3.2 -1.5,-1.6 -2.9,-3.3 -3.1,-3.6 -0.5,-0.5 -0.4,-0.8 0.2,-2.4 1.1,-2.4 1.9,-6.9 1.9,-10 v -2.6 h -3.7 -3.6 l -0.3,4 c -0.1,2.2 -0.4,4 -0.5,4 -0.3,0 -7.5,-8.4 -7.5,-8.8 0,-0.1 1,-1.1 2.3,-2 4.1,-3.1 5.6,-5.6 5.6,-9.6 0,-3 -0.8,-5 -2.7,-6.6 -2.2,-1.8 -6.1,-2.5 -9.6,-1.9 z m 4.5,7 c 1.8,1.6 0.7,5.3 -2.1,7.6 -0.8,0.6 -1.6,1.1 -1.8,1.1 -0.2,0 -0.9,-0.9 -1.5,-1.9 -1.6,-2.7 -1.5,-4.7 0.1,-6.3 1,-1 1.5,-1.2 2.8,-1.2 1.1,-0.1 1.9,0.1 2.5,0.7 z m -3.7,20.3 c 1.2,1.4 3.4,3.9 5,5.7 l 2.9,3.2 -1.6,0.8 c -2,1.1 -6.4,1.2 -8.4,0.1 -2.6,-1.3 -3.8,-4.6 -2.7,-8 0.5,-1.7 2,-4.3 2.4,-4.3 0.1,0.1 1.2,1.1 2.4,2.5 z" id="path82"></path> <path class="st1" d="m 710.2,291.8 v 21.4 h 4 4 v -7.9 -7.9 h 3.8 3.8 l 4.3,7.9 4.4,7.9 h 4.1 c 2.8,0 4.1,-0.1 4.1,-0.4 0,-0.2 -2.1,-4.3 -4.6,-9 -4.2,-7.8 -4.6,-8.6 -3.9,-9 1.7,-1 3.9,-3.5 5,-5.7 1.1,-2.2 1.2,-2.6 1.2,-6.3 0,-3.2 -0.1,-4.1 -0.8,-5.7 -1.5,-3.3 -4,-5.2 -8.1,-6.2 -1.8,-0.4 -4.6,-0.6 -11.8,-0.6 h -9.4 v 21.5 z m 19.2,-13.7 c 2.5,1.4 3.4,5 2,8.1 -1.1,2.5 -2.9,3.2 -8.7,3.4 l -4.5,0.1 v -6.3 -6.3 l 5,0.1 c 3.9,0.3 5.3,0.5 6.2,0.9 z" id="path84"></path> <path class="st1" d="m 978,270.9 c -1.6,0.7 -2.3,1.9 -2.3,3.9 0,2.8 2,4.4 4.9,3.8 3.9,-0.7 4.2,-6.8 0.3,-7.9 -1.7,-0.4 -1.5,-0.4 -2.9,0.2 z" id="path86"></path> <path class="st1" d="m 854.3,275.4 c -0.7,0.1 -1.8,0.2 -2.4,0.3 l -1.2,0.2 v 3.3 3.3 h -1.8 -1.8 l -0.2,2.4 c -0.4,4.4 -0.5,4.1 1.8,4.1 h 2 v 8.4 c 0,9.5 0.3,11.6 1.9,13.4 1.9,2.1 3.5,2.7 8,2.7 4.5,0 4.1,0.3 4.5,-3.9 l 0.3,-2.6 h -2.7 c -4,0 -3.9,0.3 -3.9,-9.8 V 289 h 3.3 3.3 v -3.3 -3.3 h -3.3 -3.3 v -3.7 -3.7 l -1.5,0.1 c -1.1,0.1 -2.4,0.2 -3,0.3 z" id="path88"></path> <path class="st1" d="m 457.4,283 c -2,0.8 -2.1,0.8 -2.1,0.2 0,-0.6 -0.3,-0.7 -3.7,-0.7 H 448 v 15.4 15.4 h 3.8 3.8 v -11.1 c 0,-12.3 -0.1,-11.5 2.4,-12.8 1.6,-0.8 4.8,-0.8 6.2,0.1 2.3,1.4 2.5,2.4 2.6,13.6 l 0.1,10.2 h 3.8 3.8 l -0.1,-11.1 c -0.1,-10.5 -0.1,-11.2 -1,-13.1 -1,-2.5 -3,-4.6 -5.4,-5.8 -1.4,-0.7 -2.5,-0.9 -5.3,-1 -2.7,-0.2 -3.5,-0.1 -5.3,0.7 z" id="path90"></path> <path class="st1" d="m 486.9,282.7 c -5.2,1.8 -8.3,6 -9.3,12.2 -1.1,7.4 2.1,14.4 8,17.3 2,1 2.4,1.1 7.1,1.1 4.4,0 5.1,-0.1 6.9,-0.9 l 2,-0.9 -0.3,-3.3 c -0.1,-1.8 -0.3,-3.4 -0.4,-3.5 -0.1,-0.1 -1.1,0.3 -2.2,0.9 -2.8,1.4 -6.9,1.7 -8.8,0.7 -6,-3.1 -5.6,-15.3 0.6,-17.3 2.1,-0.7 5.9,-0.3 8.1,0.9 1.1,0.5 2.1,0.9 2.3,0.7 0.2,-0.2 0.4,-1.7 0.5,-3.4 l 0.3,-3.1 -1.9,-0.8 c -3.1,-1.3 -10.1,-1.6 -12.9,-0.6 z" id="path92"></path> <path class="st1" d="m 512.3,282.8 c -2.7,0.9 -4.2,1.9 -6.1,3.9 -3.5,3.8 -4.8,9.7 -3.5,15.4 1,4 2.9,6.9 6.2,9 2.8,1.8 5.5,2.5 9.7,2.3 3.2,-0.1 3.8,-0.3 6.3,-1.5 4.4,-2.2 7.1,-6 8,-11.5 0.5,-3.4 0,-7 -1.5,-10.2 -1.6,-3.3 -3.3,-5.1 -6.5,-6.7 -2.6,-1.3 -3,-1.4 -6.7,-1.5 -3,0.1 -4.3,0.2 -5.9,0.8 z m 8.4,6.5 c 5.8,2.9 5.6,14.7 -0.2,17.1 -1.6,0.7 -4.7,0.7 -6,0 -5.7,-3 -5.9,-13.6 -0.2,-17.1 1.5,-0.9 4.8,-0.9 6.4,0 z" id="path94"></path> <path class="st1" d="m 558.3,282.6 c -5.9,2 -9.5,6.3 -10.4,12.6 -1.1,7.3 2.2,14.2 8.3,17 2.3,1.1 2.7,1.2 6.8,1.2 5.3,0 7.6,-0.7 10.5,-3.5 3.3,-3 5,-7.2 5,-12.1 0,-6.7 -3.6,-12.5 -9.1,-14.7 -2.5,-1 -8.8,-1.3 -11.1,-0.5 z m 8.4,7 c 5.3,3.1 4.9,14 -0.6,16.9 -1.3,0.7 -4.4,0.7 -6,0 -5.8,-2.4 -5.9,-14.7 -0.1,-17.3 1.9,-0.8 4.9,-0.7 6.7,0.4 z" id="path96"></path> <path class="st1" d="m 587.5,282.7 c -5.2,1.8 -7.7,5.9 -7.4,12.1 0.1,3.5 1,5.7 2.9,7.6 l 1.1,1.1 -1.1,1.1 c -1.9,1.9 -1.9,4.8 0,6.7 0.6,0.5 0.9,1 0.7,1 -0.7,0 -3.4,2.8 -3.9,3.9 -1,2.5 -0.3,5.8 1.6,7.9 4,4.2 15.5,5.2 21.9,2 3.4,-1.8 5,-4.3 5,-8.2 0,-5.4 -3.4,-7.8 -12.9,-9.2 -5.3,-0.8 -6.7,-1.2 -6.5,-2.1 0.1,-0.5 0.7,-0.6 3.6,-0.7 2.9,-0.1 3.8,-0.3 5.5,-1 3.7,-1.7 5.8,-4.5 6.5,-8.6 0.4,-2.5 0.1,-6 -0.9,-7.8 l -0.5,-1.1 h 2.2 c 2,0 2.2,0 2.2,-0.9 0,-0.5 0.1,-1.6 0.2,-2.6 l 0.3,-1.7 h -2.2 c -1.2,0 -3.1,0.3 -4.3,0.5 -2,0.5 -2.3,0.5 -4.1,-0.2 -2.6,-0.6 -7.3,-0.7 -9.9,0.2 z m 7.5,5.9 c 3.1,1.9 3.4,8.4 0.4,10.7 -2.4,1.9 -6.5,1 -7.8,-1.9 -1.6,-3.4 -0.4,-7.9 2.4,-9.1 1.3,-0.5 3.9,-0.4 5,0.3 z m -0.7,26.4 c 5.2,0.7 6.9,1.6 6.9,3.6 0,2.2 -3.1,3.7 -7.6,3.7 -3.5,0 -5.4,-0.5 -6.7,-1.8 -1.2,-1.2 -1.4,-2.7 -0.4,-3.9 0.8,-1.1 3.1,-2.3 4.2,-2.1 0.4,0.1 2.1,0.3 3.6,0.5 z" id="path98"></path> <path class="st1" d="m 627.3,282.8 c -1.4,0.4 -3.1,1 -3.8,1.3 l -1.2,0.6 0.3,2.6 c 0.4,4.1 0.3,4 2.5,3 5.7,-2.5 10.7,-1.7 11.4,1.9 l 0.2,1.1 -3.1,0.4 c -6.4,0.9 -10.8,3.1 -12.7,6.4 -1.1,1.8 -1.1,2.1 -1,4.9 0.2,4.1 1.6,6.4 4.8,7.9 3,1.4 8.7,0.7 11.7,-1.4 l 1.4,-0.9 1,0.9 c 1.5,1.4 3.4,2 6.2,2 h 2.5 l 0.2,-1.9 c 0.1,-1 0.3,-2.5 0.4,-3.3 l 0.2,-1.4 H 647 c -1,0 -1.6,-0.2 -1.8,-0.7 -0.2,-0.3 -0.4,-4.2 -0.5,-8.5 -0.2,-8.8 -0.5,-10.1 -2.7,-12.7 -1.8,-2.1 -4.4,-3 -8.7,-3 -2.1,0.1 -4.4,0.4 -6,0.8 z m 9.4,19.3 c 0,3.8 -0.3,4.2 -3.1,5 -2.3,0.7 -4.3,0.2 -5.1,-1.3 -0.7,-1.3 -0.7,-2 0,-3.3 0.9,-1.7 4.6,-3.5 7.4,-3.6 0.7,0 0.8,0.1 0.8,3.2 z" id="path100"></path> <path class="st1" d="m 749.8,282.8 c -1.4,0.4 -3.1,1 -3.8,1.3 l -1.2,0.6 0.3,3 c 0.1,1.6 0.3,3.1 0.4,3.3 0.1,0.1 1.1,-0.1 2.1,-0.6 5.6,-2.5 10.7,-1.7 11.4,1.8 l 0.2,1.1 -3.1,0.4 c -6,0.8 -10.6,3 -12.6,6 -0.9,1.3 -1.1,2 -1.1,4.5 -0.1,2.7 0,3.1 0.9,5 1.5,2.8 3.7,4.1 7.2,4.3 3.3,0.2 5.9,-0.4 8.1,-1.8 l 1.8,-1.1 1,0.9 c 1.5,1.4 3.4,2 6.2,2 h 2.5 l 0.3,-2.3 c 0.1,-1.2 0.3,-2.7 0.4,-3.3 0.2,-1 0.1,-1 -1.3,-1 -1,0 -1.6,-0.2 -1.8,-0.7 -0.2,-0.3 -0.4,-4.2 -0.5,-8.5 -0.1,-6.3 -0.3,-8.2 -0.8,-9.7 -0.9,-2.4 -3.2,-4.7 -5.5,-5.4 -2.5,-0.7 -7.7,-0.7 -11.1,0.2 z m 9.4,19.4 c 0,3.1 0,3.3 -1,4 -1.5,1.1 -3.7,1.6 -5.3,1.2 -1.6,-0.4 -2.1,-1 -2.3,-2.6 -0.4,-2.3 1.9,-4.5 5.6,-5.4 3.1,-0.8 3,-0.9 3,2.8 z" id="path102"></path> <path class="st1" d="m 825.9,282.7 c -5.8,2.1 -9.1,6.1 -10.1,12.4 -1.1,7.3 2.2,14.2 8.3,17 2.1,1 3,1.2 6,1.3 5.5,0.2 9.3,-1.1 12.3,-4.5 4.6,-5 5.4,-13.4 2,-19.7 -1.4,-2.4 -4.4,-5.2 -7,-6.1 -2.8,-1.1 -8.9,-1.3 -11.5,-0.4 z m 8.2,6.5 c 2.6,1.4 4.4,5 4.4,8.6 0,3.7 -1.9,7.3 -4.4,8.6 -1.3,0.7 -4.4,0.7 -6,0 -5.8,-2.4 -5.9,-14.7 -0.1,-17.3 1.6,-0.6 4.8,-0.6 6.1,0.1 z" id="path104"></path> <path class="st1" d="m 875.8,282.7 c -3.8,1.1 -7.2,4.5 -8.8,8.6 -0.7,1.7 -0.8,2.7 -0.8,6.4 0,3.7 0.1,4.7 0.8,6.5 1.6,4 4.4,6.8 8.3,8.3 4.1,1.6 11.7,1.4 15.8,-0.4 l 1.6,-0.7 -0.1,-3.1 c -0.1,-1.7 -0.3,-3.2 -0.4,-3.3 -0.1,-0.1 -1.4,0.2 -2.7,0.7 -1.7,0.7 -3.5,1 -5.6,1.1 -2.9,0.1 -3.3,0.1 -5.1,-0.9 -2.2,-1.1 -3.9,-3.1 -4.2,-5.2 l -0.2,-1.2 h 9.7 9.7 l 0.3,-1.4 c 1.2,-7.3 -2.4,-13.7 -8.7,-15.6 -2.5,-0.6 -7.4,-0.5 -9.6,0.2 z m 7.7,6.6 c 1.1,0.7 2.5,3.1 2.5,4.2 0,0.5 -0.6,0.6 -5.9,0.6 h -5.9 l 0.2,-0.8 c 0.5,-1.5 1.9,-3.4 3.1,-4 1.8,-0.8 4.7,-0.8 6,0 z" id="path106"></path> <path class="st1" d="m 908.7,282.6 c -0.7,0.3 -2,0.9 -2.7,1.5 l -1.4,0.9 -0.1,-1.3 -0.1,-1.3 h -3.8 -3.8 v 15.4 15.4 h 4 4 v -10.5 c 0,-10.5 0,-10.6 0.8,-11.3 1.2,-1.2 3.3,-1.9 5.5,-1.9 h 1.9 l 0.6,-3.2 c 0.3,-1.8 0.6,-3.4 0.6,-3.7 0,-0.7 -3.8,-0.6 -5.5,0 z" id="path108"></path> <path class="st1" d="m 921,282.6 c -1,0.3 -2.6,0.8 -3.7,1.2 -2,0.8 -1.9,0.5 -1.5,4.9 l 0.3,2.4 2.2,-0.9 c 4.2,-1.7 8.2,-1.9 9.8,-0.5 0.4,0.3 1,1.2 1.2,2 l 0.5,1.5 -3.1,0.4 c -9,1.3 -14,5.2 -14,10.8 0,2.5 1.1,5.2 2.8,6.8 2,1.9 3.8,2.4 7.6,2.2 2.3,-0.1 3.3,-0.4 5.4,-1.5 l 2.6,-1.3 0.9,0.9 c 0.5,0.5 1.5,1.2 2.2,1.5 1.3,0.5 6.2,0.7 6.5,0.2 0.1,-0.1 0.3,-1.6 0.4,-3.3 l 0.3,-3 h -1.3 c -2.2,0 -2.2,-0.3 -2.5,-9.3 -0.3,-8.9 -0.5,-10 -2.4,-12.3 -2.1,-2.4 -3.7,-3 -8.3,-3.1 -2.7,-0.1 -4.7,0.1 -5.9,0.4 z m 8.9,19.7 -0.1,3.4 -1.6,0.8 c -3.5,1.9 -7,0.8 -7,-2.2 0,-1.2 0.2,-1.7 1.4,-2.8 1.4,-1.4 4.2,-2.5 6.4,-2.5 h 1 z" id="path110"></path> <path class="st1" d="m 952.5,282.9 c -2,0.9 -2.1,0.9 -2.3,0.2 -0.2,-0.6 -0.6,-0.7 -3.7,-0.7 h -3.4 v 22.7 22.7 h 3.8 3.8 v -8 -8 l 1.6,0.8 c 1.3,0.7 2.2,0.8 5.7,0.8 3.8,0 4.4,-0.1 6.3,-1 5.4,-2.5 8.3,-7.6 8.3,-14.6 0,-6.9 -2.9,-12 -8.3,-14.6 -1.8,-0.8 -2.7,-1 -5.9,-1.1 -3.3,0 -4,0.1 -5.9,0.8 z m 8.2,6.5 c 2.6,1.3 4,4.3 4,8.4 0,5.7 -2.8,9.1 -7.3,9.1 -4.4,0 -6.6,-3.1 -6.6,-9.1 0,-4.4 1.1,-7 3.5,-8.5 1.5,-0.9 4.5,-0.9 6.4,0.1 z" id="path112"></path> <path class="st1" d="m 993.9,282.6 c -1.1,0.3 -2.8,0.8 -3.8,1.2 l -1.8,0.8 0.3,2.3 c 0.1,1.2 0.3,2.7 0.4,3.2 l 0.2,1 2.2,-0.9 c 5.4,-2.2 9.5,-1.8 10.8,0.8 1,2 0.8,2.3 -1.7,2.5 -6.8,0.8 -11.8,3.3 -13.6,6.9 -2.3,4.7 -0.2,10.8 4.5,12.5 3.2,1.2 10.1,0 12,-2.1 0.6,-0.7 0.6,-0.7 1.4,0.3 1.2,1.5 3.4,2.3 6.4,2.3 h 2.6 l 0.2,-1.4 c 0.1,-0.7 0.3,-2.2 0.4,-3.3 l 0.2,-1.9 h -1.5 c -2.1,0 -2.2,-0.5 -2.2,-8.4 0,-8.7 -0.7,-11.6 -3.2,-13.9 -2,-1.9 -3.3,-2.3 -7.6,-2.4 -2.7,0.1 -4.9,0.2 -6.2,0.5 z m 8.8,19.7 c 0,3.3 0,3.4 -1,4 -3.1,1.8 -6.4,1.5 -7.3,-0.7 -1.1,-2.6 0.8,-5 4.9,-6.1 3.5,-1 3.4,-1.1 3.4,2.8 z" id="path114"></path> <path class="st1" d="m 609.6,297.8 v 15.4 h 3.8 3.8 v -15.4 -15.4 h -3.8 -3.8 z" id="path116"></path> <path class="st1" d="m 804.9,297.8 v 15.4 h 4 4 v -15.4 -15.4 h -4 -4 z" id="path118"></path> <path class="st1" d="m 975.7,297.8 v 15.4 h 3.8 3.8 v -15.4 -15.4 h -3.8 -3.8 z" id="path120"></path> <circle class="st2" cx="266.79999" cy="291.89999" r="14.3" id="circle122"></circle> </g> </svg> 